<svg id="Layer_1" data-name="Layer 1" xmlns="http://www.w3.org/2000/svg" viewBox="0 0 96 64"><defs><style>.cls-1{fill:#00a2eb;}</style></defs><title>Artboard 1</title><path id="Twitter_alt_" data-name="Twitter (alt)" class="cls-1" d="M81.68,28.68c4.89-.4,8.21-2.63,9.49-5.64-1.77,1.08-7.24,2.27-10.27,1.14-.15-.71-.31-1.39-.48-2C78.12,13.71,70.23,6.89,62,7.72c.67-.27,1.35-.52,2-.75.91-.33,6.25-1.2,5.41-3.08-.71-1.66-7.23,1.25-8.46,1.63,1.62-.61,4.3-1.66,4.59-3.52a13,13,0,0,0-6.81,3.22A4.68,4.68,0,0,0,60,2.64c-6.63,4.23-10.5,12.77-13.63,21a32.52,32.52,0,0,0-6.6-5.3A171.94,171.94,0,0,0,17.44,8.55c-.32,3.41,1.69,7.94,7.45,11a18.23,18.23,0,0,0-5.36.64c.74,3.9,3.17,7.12,9.75,8.67-3,.2-4.56.88-6,2.36C24.69,33.89,28,37.08,34,36.43c-6.68,2.88-2.72,8.22,2.71,7.42a23.09,23.09,0,0,1-32.3.86c21.93,29.88,69.6,17.67,76.7-11.11,5.32,0,8.45-1.84,10.39-3.93A21.2,21.2,0,0,1,81.68,28.68Z"/></svg>